# xmcd
# Track frame offsets:
# 150
# 10038
# 30606
# 46065
# 76392
# 87150
# 113151
# 127253
# 144880
# 160459
#
# Disc length: 2282 seconds
# Revision: 1
# Processed by: cddbd v1.5.1PL2 Copyright (c) Steve Scherf et al.
# Submitted via: VisiTrax 2.9.5.181 - For more info visit www.synapsa.com
#
DISCID=7508e80a
DTITLE=Stevie Ray Vaughan - Sky Is Crying
DYEAR=1991
DGENRE=
TTITLE0=Boot Hill
TTITLE1=Sky Is Crying
TTITLE2=Empty Arms
TTITLE3=Little Wing
TTITLE4=Wham!
TTITLE5=May I Have A Talk With You
TTITLE6=Close To You
TTITLE7=Chitlins Con Carne
TTITLE8=So Excited
TTITLE9=Life By The Drop
EXTD=
EXTT0=
EXTT1=
EXTT2=
EXTT3=
EXTT4=
EXTT5=
EXTT6=
EXTT7=
EXTT8=
EXTT9=
PLAYORDER=
